<?xml version="1.0" encoding="utf-8"?>
<!-- Generator: Adobe Illustrator 24.0.1, SVG Export Plug-In . SVG Version: 6.00 Build 0)  -->
<svg version="1.1" baseProfile="basic" id="Camada_1"
	 xmlns="http://www.w3.org/2000/svg" xmlns:xlink="http://www.w3.org/1999/xlink" x="0px" y="0px" viewBox="0 0 878 660"
	 xml:space="preserve">
<style type="text/css">
	.st0{fill:#FF776E;}
</style>
<circle class="st0" cx="650.76" cy="187.5" r="8.67"/>
<circle class="st0" cx="650.76" cy="134.17" r="10.67"/>
<circle class="st0" cx="650.76" cy="80.83" r="12"/>
<circle class="st0" cx="650.76" cy="27.5" r="12"/>
<circle class="st0" cx="608.1" cy="187.5" r="8.67"/>
<circle class="st0" cx="608.1" cy="134.17" r="10.67"/>
<circle class="st0" cx="608.1" cy="80.83" r="12"/>
<circle class="st0" cx="608.1" cy="27.5" r="12"/>
<circle class="st0" cx="735.76" cy="187.5" r="8.67"/>
<circle class="st0" cx="735.76" cy="134.17" r="10.67"/>
<circle class="st0" cx="735.76" cy="80.83" r="12"/>
<circle class="st0" cx="735.76" cy="27.5" r="12"/>
<circle class="st0" cx="693.1" cy="187.5" r="8.67"/>
<circle class="st0" cx="693.1" cy="134.17" r="10.67"/>
<circle class="st0" cx="693.1" cy="80.83" r="12"/>
<circle class="st0" cx="693.1" cy="27.5" r="12"/>
<circle class="st0" cx="820.76" cy="188.5" r="8.67"/>
<circle class="st0" cx="820.76" cy="135.17" r="10.67"/>
<circle class="st0" cx="820.76" cy="81.83" r="12"/>
<circle class="st0" cx="820.76" cy="28.5" r="12"/>
<circle class="st0" cx="778.1" cy="188.5" r="8.67"/>
<circle class="st0" cx="778.1" cy="135.17" r="10.67"/>
<circle class="st0" cx="778.1" cy="81.83" r="12"/>
<circle class="st0" cx="778.1" cy="28.5" r="12"/>
</svg>
